# xmcd
#
# Track frame offsets:
#	150
#	12010
#	25861
#	43665
#	56626
#	68522
#	81828
#	99535
#	110999
#	124779
#	136689
#	148377
#
# Disc length: 2212 seconds
#
# Revision: 0
# Processed by: cddbd v1.5.1PL0 Copyright (c) Steve Scherf et al.
# Submitted via: dBpowerAMP V4.0
#
DISCID=a408a20c
DTITLE=Always On My Mind - Trudy Andes
DYEAR=1999
DGENRE=Country
TTITLE0=Burning Love
TTITLE1=Till Your Gone
TTITLE2=Suspicious Minds
TTITLE3=Can I see You Tonight
TTITLE4=Way Down
TTITLE5=In Times Like These
TTITLE6=Always On My Mind
TTITLE7=Happy Birthday Heartache
TTITLE8=Moody Blue
TTITLE9=Wrong Road Again
TTITLE10=In the Ghetto
TTITLE11=There`s No Love
EXTD=
EXTT0=
EXTT1=
EXTT2=
EXTT3=
EXTT4=
EXTT5=
EXTT6=
EXTT7=
EXTT8=
EXTT9=
EXTT10=
EXTT11=
PLAYORDER=
